<svg width="15" height="16" viewBox="0 0 15 16" fill="none" xmlns="http://www.w3.org/2000/svg">
<path d="M14.025 6.45564L11.4614 3.63837C10.9541 3.1311 10.1277 3.13043 9.6157 3.64247C9.45344 3.80473 9.34299 3.99905 9.28571 4.20634C8.77572 3.81566 8.04003 3.85452 7.57025 4.32431C7.40866 4.48657 7.2982 4.68089 7.23955 4.88748C6.72957 4.49817 5.99387 4.53633 5.52479 5.00611C5.36592 5.16499 5.25684 5.35451 5.19752 5.55634L3.98933 4.34815C3.48205 3.84088 2.65569 3.8402 2.14365 4.35224C1.63571 4.85951 1.63571 5.68588 2.14365 6.19382L6.78546 10.8356L4.03228 11.2679C3.28841 11.3743 2.72728 12.0206 2.72728 12.7727C2.72728 13.3366 3.18613 13.7954 3.75001 13.7954H10.1789C11.1805 13.7954 12.1221 13.4054 12.8305 12.697L13.9029 11.6245C14.6107 10.9175 15 9.97654 15 8.97631C15 8.04221 14.6536 7.147 14.025 6.45564ZM13.4209 11.1425L12.3484 12.2149C11.7689 12.7945 10.9984 13.1136 10.1788 13.1136H3.74998C3.56179 13.1136 3.40906 12.9608 3.40906 12.7726C3.40906 12.3581 3.71859 12.0015 4.13382 11.9422L7.55315 11.4049C7.67997 11.3851 7.78429 11.2958 7.82452 11.1738C7.86406 11.0524 7.83203 10.9181 7.74133 10.8274L2.62568 5.71176C2.38364 5.46973 2.38364 5.07563 2.6291 4.8295C2.75045 4.70882 2.90933 4.64813 3.0682 4.64813C3.22707 4.64813 3.38592 4.70882 3.5073 4.83017L6.91845 8.24132C7.0514 8.37428 7.26755 8.37428 7.40051 8.24132C7.46663 8.17449 7.50006 8.08724 7.50006 7.99996C7.50006 7.91268 7.46666 7.82542 7.39984 7.75859L6.00688 6.36564C5.76485 6.1236 5.76485 5.73017 6.01097 5.48405C6.25233 5.24268 6.64711 5.24268 6.88847 5.48405L8.2821 6.87767C8.41505 7.01063 8.6312 7.01063 8.76415 6.87767C8.83028 6.81085 8.86371 6.72359 8.86371 6.63631C8.86371 6.54903 8.83031 6.46178 8.76348 6.39495L8.05234 5.6838C7.8103 5.44176 7.8103 5.04833 8.05643 4.80221C8.29779 4.56084 8.69256 4.56084 8.93393 4.80221L9.64846 5.51674C9.64984 5.51741 9.64913 5.51741 9.64913 5.51741L9.64981 5.51809C9.65048 5.51876 9.65048 5.51876 9.65048 5.51876C9.65115 5.51943 9.65115 5.51943 9.65115 5.51943H9.65182C9.65249 5.51943 9.65249 5.5201 9.65249 5.5201C9.78611 5.64692 9.9975 5.6442 10.1277 5.51329C10.2607 5.38034 10.2607 5.16419 10.1277 5.03123L10.0984 5.00193C9.98114 4.88467 9.91635 4.72851 9.91635 4.56283C9.91635 4.39714 9.98043 4.24169 10.1018 4.12034C10.3446 3.87897 10.7373 3.87964 10.9684 4.10873L13.5211 6.91443C14.0345 7.47971 14.3182 8.21198 14.3182 8.97631C14.3182 9.7945 13.9998 10.5636 13.4209 11.1425Z" fill="white"/>
<path d="M5.8609 4.01348C5.36456 2.91507 4.2682 2.20459 3.06818 2.20459C1.37659 2.20459 0 3.58118 0 5.27277C0 6.47279 0.710444 7.56915 1.80885 8.0662C1.85453 8.08665 1.90227 8.09621 1.94932 8.09621C2.07885 8.09621 2.20296 8.0212 2.26023 7.89575C2.33729 7.72393 2.2609 7.5221 2.08979 7.44438C1.23478 7.05779 0.68184 6.2055 0.68184 5.27277C0.68184 3.95687 1.75228 2.8864 3.06822 2.8864C4.00094 2.8864 4.85323 3.43934 5.23982 4.29434C5.31688 4.46616 5.51938 4.54322 5.69049 4.46479C5.86228 4.38709 5.93863 4.18529 5.8609 4.01348Z" fill="#F48C0C"/>
</svg>
