<svg width="181" height="40" viewBox="0 0 181 40" fill="none" xmlns="http://www.w3.org/2000/svg">
<path fill-rule="evenodd" clip-rule="evenodd" d="M20.059 12.6001C20.082 12.7327 24.9038 0.124689 24.9038 0.124689C24.9038 0.124689 16.2972 -0.0251315 15.1566 0.00368016C10.1793 13.355 5.04067 26.6717 0 40H60.5686C60.5571 39.3834 58.0512 33.3387 57.6249 31.9443C57.6537 32.0192 12.5297 31.9212 12.5297 31.9212L16.2396 22.2636C16.7869 20.9555 19.6096 13.0381 20.059 12.6001Z" fill="#F9B300"/>
<path fill-rule="evenodd" clip-rule="evenodd" d="M30.1461 13.8275C30.1345 14.2482 28.1471 19.3133 27.813 20.0739L25.307 26.2281L35.0139 26.4182L40.5039 12.5944L45.343 0.199631L35.6073 0.00371208C34.8468 1.69784 30.6184 13.3838 30.1461 13.8275Z" fill="#F9B300"/>
<path fill-rule="evenodd" clip-rule="evenodd" d="M40.5039 12.5944L45.8614 26.4989H55.4588L45.343 0.199631L40.5039 12.5944Z" fill="#727272"/>
<path fill-rule="evenodd" clip-rule="evenodd" d="M20.059 12.6001C20.1223 13.1476 21.0671 15.2277 21.3436 16.0172C21.7468 17.1812 22.2653 18.3163 22.6743 19.4573C23.4923 21.6988 24.4602 24.0384 25.307 26.2281L27.813 20.0739C28.1471 19.3133 30.1345 14.2482 30.1461 13.8275C30.0769 13.3377 27.8936 7.97872 27.5191 6.97608C27.0467 5.69108 25.1054 0.937177 24.9038 0.124689C24.9038 0.124689 20.0532 12.531 20.059 12.6001Z" fill="#727272"/>
<path d="M75.7742 9.15884V24.3947H71.7943V17.998H70.6335V24.3947H66.6444V9.15884H70.6335V14.6154H71.7943V9.15884H75.7742ZM85.8899 16.2929V19.353C85.8899 20.4774 85.8254 21.2978 85.7148 21.8231C85.6043 22.3485 85.3647 22.837 84.987 23.2887C84.6185 23.7495 84.1394 24.0813 83.559 24.3025C82.9786 24.5145 82.3061 24.6251 81.5599 24.6251C80.7123 24.6251 79.9937 24.533 79.4133 24.3486C78.8237 24.1643 78.3722 23.8785 78.0498 23.5099C77.7273 23.132 77.497 22.6803 77.3588 22.155C77.2206 21.6204 77.1469 20.8277 77.1469 19.7677V16.5694C77.1469 15.408 77.2759 14.5048 77.5247 13.8503C77.7734 13.1959 78.234 12.6706 78.8881 12.2834C79.5423 11.8871 80.3806 11.6843 81.394 11.6843C82.2508 11.6843 82.9878 11.8134 83.5959 12.0714C84.2131 12.3203 84.683 12.6521 85.0239 13.0577C85.3555 13.4632 85.5766 13.8872 85.7056 14.3204C85.8254 14.7536 85.8899 15.408 85.8899 16.2929ZM82.0758 15.3527C82.0758 14.7168 82.0389 14.3112 81.9744 14.1453C81.9007 13.9794 81.7533 13.8964 81.523 13.8964C81.3019 13.8964 81.1453 13.9794 81.0716 14.1453C80.9979 14.3112 80.961 14.7168 80.961 15.3527V20.9844C80.961 21.5743 80.9979 21.9614 81.0716 22.1365C81.1453 22.3209 81.2927 22.413 81.5138 22.413C81.7441 22.413 81.8915 22.3301 81.9652 22.1642C82.0389 21.9983 82.0758 21.648 82.0758 21.1134V15.3527ZM95.9779 21.1042C95.9779 22.3762 95.7015 23.2426 95.1487 23.7034C94.5867 24.1643 93.3799 24.3947 91.5189 24.3947H87.1428V11.9148H91.6479C93.1956 11.9148 94.2551 12.1728 94.8355 12.6798C95.4251 13.1867 95.7107 14.0531 95.7107 15.2882C95.7107 16.6984 94.9737 17.5003 93.4996 17.6939C94.2735 17.8137 94.8723 18.1179 95.3145 18.5879C95.7568 19.058 95.9779 19.6571 95.9779 20.3668V21.1042ZM90.9385 16.5602C91.5189 16.5602 91.869 16.4864 91.9979 16.339C92.1269 16.2007 92.1914 15.915 92.1914 15.4818C92.1914 15.1315 92.1177 14.8734 91.9795 14.7444C91.8321 14.6061 91.482 14.5324 90.9385 14.5324V16.5602ZM92.1914 20.5235V20.0995C92.1914 19.5557 92.1177 19.2239 91.9795 19.0857C91.8321 18.9566 91.482 18.8829 90.9385 18.8829V21.7771C91.4452 21.7771 91.786 21.7033 91.9519 21.5558C92.1085 21.4084 92.1914 21.0581 92.1914 20.5235ZM105.955 20.8277C105.955 21.9706 105.826 22.7909 105.559 23.2794C105.292 23.7772 104.868 24.0905 104.297 24.2104C103.726 24.3302 102.795 24.3947 101.496 24.3947H97.0834V11.9148H100.879V16.0717H101.496C102.712 16.0717 103.615 16.1454 104.214 16.2929C104.813 16.4311 105.255 16.7537 105.532 17.2422C105.817 17.7307 105.955 18.505 105.955 19.5649V20.8277ZM102.169 20.3668V19.8783C102.169 19.2239 102.104 18.8368 101.975 18.6985C101.846 18.5603 101.478 18.4773 100.879 18.4589V21.7771C101.386 21.7771 101.727 21.7125 101.902 21.5835C102.077 21.4545 102.169 21.0489 102.169 20.3668ZM110.912 24.3947H107.116V11.9148H110.912V24.3947ZM120.889 18.3667H115.942V21.0673C115.942 21.6388 115.979 21.9983 116.062 22.1642C116.145 22.3301 116.301 22.413 116.541 22.413C116.836 22.413 117.029 22.3024 117.121 22.0812C117.223 21.8692 117.269 21.4452 117.269 20.8277V19.1778H120.889V20.0995C120.889 20.8738 120.843 21.4637 120.742 21.8784C120.64 22.2932 120.41 22.7356 120.06 23.2057C119.701 23.6758 119.24 24.0352 118.687 24.2657C118.135 24.5053 117.453 24.6251 116.615 24.6251C115.813 24.6251 115.104 24.5053 114.486 24.2749C113.869 24.0445 113.39 23.7219 113.04 23.3163C112.699 22.92 112.46 22.4683 112.331 21.9798C112.202 21.5005 112.128 20.7908 112.128 19.8599V16.2191C112.128 15.1315 112.275 14.2651 112.57 13.6384C112.874 13.0116 113.353 12.5231 114.026 12.1913C114.707 11.8502 115.481 11.6843 116.357 11.6843C117.425 11.6843 118.31 11.8871 119.001 12.2927C119.701 12.6982 120.189 13.2328 120.465 13.8964C120.751 14.5601 120.889 15.5002 120.889 16.7169V18.3667ZM117.075 16.3482V15.4357C117.075 14.7813 117.048 14.3665 116.974 14.1822C116.9 13.9886 116.753 13.8964 116.541 13.8964C116.264 13.8964 116.099 13.9794 116.034 14.1361C115.97 14.302 115.942 14.726 115.942 15.4357V16.3482H117.075Z" fill="white"/>
<path d="M137.389 24.3946H134.119V15.7858L132.534 24.3946H130.443L128.803 15.7858V24.3946H125.532V11.9146H130.258L131.484 18.8274L132.589 11.9146H137.389V24.3946ZM147.385 18.3666H142.438V21.0672C142.438 21.6386 142.475 21.9981 142.558 22.164C142.64 22.3299 142.797 22.4129 143.037 22.4129C143.331 22.4129 143.525 22.3023 143.626 22.0811C143.718 21.8691 143.774 21.4451 143.774 20.8275V19.1777H147.385V20.0994C147.385 20.8736 147.339 21.4635 147.238 21.8783C147.136 22.2931 146.915 22.7355 146.556 23.2055C146.197 23.6756 145.736 24.0351 145.183 24.2655C144.64 24.5052 143.949 24.625 143.12 24.625C142.309 24.625 141.599 24.5052 140.982 24.2747C140.365 24.0443 139.886 23.7217 139.536 23.3162C139.195 22.9198 138.955 22.4682 138.826 21.9797C138.697 21.5004 138.624 20.7907 138.624 19.8597V16.219C138.624 15.1314 138.78 14.265 139.075 13.6382C139.37 13.0114 139.849 12.5229 140.522 12.1911C141.203 11.8501 141.977 11.6842 142.852 11.6842C143.921 11.6842 144.805 11.8869 145.496 12.2925C146.197 12.6981 146.685 13.2326 146.97 13.8963C147.247 14.5599 147.385 15.5001 147.385 16.7167V18.3666ZM143.58 16.348V15.4355C143.58 14.7811 143.543 14.3663 143.47 14.182C143.396 13.9884 143.258 13.8963 143.037 13.8963C142.769 13.8963 142.594 13.9792 142.53 14.1359C142.465 14.3018 142.438 14.7258 142.438 15.4355V16.348H143.58ZM156.183 11.9146V14.5323H154V24.3946H150.195V14.5323H148.012V11.9146H156.183ZM160.817 11.9146L160.753 13.0207C161.094 12.569 161.462 12.2372 161.877 12.016C162.282 11.7948 162.734 11.6842 163.213 11.6842C163.811 11.6842 164.318 11.8409 164.751 12.1635C165.184 12.4768 165.451 12.8455 165.562 13.2603C165.663 13.6751 165.719 14.3756 165.719 15.3618V20.6248C165.719 21.7585 165.654 22.5696 165.516 23.0489C165.378 23.5281 165.101 23.906 164.687 24.1918C164.263 24.4775 163.756 24.625 163.167 24.625C162.697 24.625 162.255 24.5144 161.858 24.2932C161.453 24.072 161.084 23.7401 160.753 23.3069V26.1642H156.939V11.9146H160.817ZM161.914 15.5461C161.914 14.7719 161.877 14.311 161.822 14.1451C161.766 13.9792 161.61 13.8963 161.352 13.8963C161.094 13.8963 160.937 13.9884 160.863 14.182C160.79 14.3663 160.753 14.8272 160.753 15.5461V20.7169C160.753 21.4727 160.79 21.9428 160.863 22.1271C160.937 22.3115 161.103 22.4129 161.361 22.4129C161.61 22.4129 161.757 22.3207 161.822 22.1456C161.877 21.9797 161.914 21.5557 161.914 20.8921V15.5461ZM175.853 20.8275C175.853 21.9705 175.714 22.7908 175.447 23.2793C175.18 23.777 174.756 24.0904 174.185 24.2102C173.614 24.33 172.683 24.3946 171.384 24.3946H166.971V11.9146H170.767V16.0715H171.384C172.6 16.0715 173.503 16.1452 174.102 16.2927C174.701 16.431 175.143 16.7536 175.42 17.2421C175.705 17.7306 175.853 18.5048 175.853 19.5648V20.8275ZM172.057 20.3667V19.8782C172.057 19.2238 171.992 18.8366 171.863 18.6984C171.734 18.5601 171.366 18.4772 170.767 18.4587V21.7769C171.274 21.7769 171.615 21.7124 171.79 21.5833C171.965 21.4543 172.057 21.0487 172.057 20.3667ZM180.8 24.3946H177.004V11.9146H180.8V24.3946Z" fill="#F9B300"/>
<path fill-rule="evenodd" clip-rule="evenodd" d="M18.5035 31.9904H19.2006V34.958H18.5035V31.9904Z" fill="#1C1B17"/>
<path fill-rule="evenodd" clip-rule="evenodd" d="M18.446 31.9327H19.2583V35.0156H18.446V31.9327ZM18.5612 32.048V34.9003H19.143V32.048H18.5612Z" fill="#1C1B17"/>
<path fill-rule="evenodd" clip-rule="evenodd" d="M20.4392 31.9846H20.445V37.0093H20.4392V31.9846Z" fill="#1C1B17"/>
<path fill-rule="evenodd" clip-rule="evenodd" d="M20.3815 31.927H20.5025V37.067H20.3815V31.927Z" fill="#1C1B17"/>
<path fill-rule="evenodd" clip-rule="evenodd" d="M22.5131 32.0077H23.2101V35.0847H22.5131V32.0077Z" fill="#1C1B17"/>
<path fill-rule="evenodd" clip-rule="evenodd" d="M22.4554 31.95H23.2677V35.1424H22.4554V31.95ZM22.5706 32.0653V35.0271H23.1525V32.0653H22.5706Z" fill="#1C1B17"/>
<path fill-rule="evenodd" clip-rule="evenodd" d="M24.5466 31.9961H24.5524V37.0209H24.5466V31.9961Z" fill="#1C1B17"/>
<path fill-rule="evenodd" clip-rule="evenodd" d="M24.489 31.9385H24.6099V37.0785H24.489V31.9385Z" fill="#1C1B17"/>
<path fill-rule="evenodd" clip-rule="evenodd" d="M26.7702 32.0077H27.4673V34.9753H26.7702V32.0077Z" fill="#1C1B17"/>
<path fill-rule="evenodd" clip-rule="evenodd" d="M26.7127 31.95H27.5249V35.0329H26.7127V31.95ZM26.8279 32.0653V34.9176H27.4097V32.0653H26.8279Z" fill="#1C1B17"/>
<path fill-rule="evenodd" clip-rule="evenodd" d="M28.6253 32.0077H28.631V37.0267H28.6253V32.0077Z" fill="#1C1B17"/>
<path fill-rule="evenodd" clip-rule="evenodd" d="M28.5676 31.95H28.6886V37.0843H28.5676V31.95Z" fill="#1C1B17"/>
<path fill-rule="evenodd" clip-rule="evenodd" d="M30.6415 32.0134H31.3443V35.0963H30.6415V32.0134Z" fill="#1C1B17"/>
<path fill-rule="evenodd" clip-rule="evenodd" d="M30.5839 31.9558H31.4019V35.1539H30.5839V31.9558ZM30.6991 32.0711V35.0387H31.2867V32.0711H30.6991Z" fill="#1C1B17"/>
<path fill-rule="evenodd" clip-rule="evenodd" d="M33.0725 32.0249H33.0782V37.0497H33.0725V32.0249Z" fill="#1C1B17"/>
<path fill-rule="evenodd" clip-rule="evenodd" d="M33.0149 31.9673H33.1359V37.1073H33.0149V31.9673Z" fill="#1C1B17"/>
<path fill-rule="evenodd" clip-rule="evenodd" d="M34.4263 32.0192H35.1291V34.9868H34.4263V32.0192Z" fill="#1C1B17"/>
<path fill-rule="evenodd" clip-rule="evenodd" d="M34.3687 31.9616H35.1867V35.0444H34.3687V31.9616ZM34.4839 32.0768V34.9292H35.0715V32.0768H34.4839Z" fill="#1C1B17"/>
<path fill-rule="evenodd" clip-rule="evenodd" d="M37.1166 32.0077H37.1224V37.0267H37.1166V32.0077Z" fill="#1C1B17"/>
<path fill-rule="evenodd" clip-rule="evenodd" d="M37.0589 31.95H37.1799V37.0843H37.0589V31.95Z" fill="#1C1B17"/>
<path fill-rule="evenodd" clip-rule="evenodd" d="M38.6662 32.0134H39.369V35.0963H38.6662V32.0134Z" fill="#1C1B17"/>
<path fill-rule="evenodd" clip-rule="evenodd" d="M38.6086 31.9558H39.4266V35.1539H38.6086V31.9558ZM38.7238 32.0711V35.0387H39.3114V32.0711H38.7238Z" fill="#1C1B17"/>
<path fill-rule="evenodd" clip-rule="evenodd" d="M41.2701 32.0249H41.2758V37.0497H41.2701V32.0249Z" fill="#1C1B17"/>
<path fill-rule="evenodd" clip-rule="evenodd" d="M41.2125 31.9673H41.3335V37.1073H41.2125V31.9673Z" fill="#1C1B17"/>
<path fill-rule="evenodd" clip-rule="evenodd" d="M42.7045 31.9961H43.4015V35.0732H42.7045V31.9961Z" fill="#1C1B17"/>
<path fill-rule="evenodd" clip-rule="evenodd" d="M42.6469 31.9385H43.4592V35.1308H42.6469V31.9385ZM42.7621 32.0538V35.0156H43.344V32.0538H42.7621Z" fill="#1C1B17"/>
<path fill-rule="evenodd" clip-rule="evenodd" d="M45.4236 32.0077H45.4294V37.0324H45.4236V32.0077Z" fill="#1C1B17"/>
<path fill-rule="evenodd" clip-rule="evenodd" d="M45.3659 31.95H45.4869V37.09H45.3659V31.95Z" fill="#1C1B17"/>
<path fill-rule="evenodd" clip-rule="evenodd" d="M46.9387 32.0134H47.6415V35.0963H46.9387V32.0134Z" fill="#1C1B17"/>
<path fill-rule="evenodd" clip-rule="evenodd" d="M46.8811 31.9558H47.6991V35.1539H46.8811V31.9558ZM46.9963 32.0711V35.0387H47.5839V32.0711H46.9963Z" fill="#1C1B17"/>
<path fill-rule="evenodd" clip-rule="evenodd" d="M49.7211 32.0249H49.7268V37.0497H49.7211V32.0249Z" fill="#1C1B17"/>
<path fill-rule="evenodd" clip-rule="evenodd" d="M49.6635 31.9673H49.7845V37.1073H49.6635V31.9673Z" fill="#1C1B17"/>
<path fill-rule="evenodd" clip-rule="evenodd" d="M51.023 32.0307H51.7201V35.1135H51.023V32.0307Z" fill="#1C1B17"/>
<path fill-rule="evenodd" clip-rule="evenodd" d="M50.9655 31.9731H51.7777V35.1712H50.9655V31.9731ZM51.0807 32.0883V35.0559H51.6625V32.0883H51.0807Z" fill="#1C1B17"/>
<path fill-rule="evenodd" clip-rule="evenodd" d="M53.9091 32.0134H53.9207V37.0324H53.9091V32.0134Z" fill="#1C1B17"/>
<path fill-rule="evenodd" clip-rule="evenodd" d="M53.8516 31.9558H53.9783V37.09H53.8516V31.9558Z" fill="#1C1B17"/>
<path d="M69.7859 33.5289C69.5372 33.7409 69.2884 33.8883 69.0581 33.9805C68.8278 34.0727 68.579 34.1095 68.3119 34.1095C67.8697 34.1095 67.538 34.0081 67.2985 33.7962C67.0681 33.5749 66.9484 33.3076 66.9484 32.9758C66.9484 32.7823 66.9944 32.5979 67.0773 32.4412C67.1695 32.2753 67.2892 32.1463 67.4274 32.0541C67.5748 31.9527 67.7407 31.879 67.9157 31.8237C68.0539 31.796 68.2474 31.7592 68.5238 31.7223C69.0673 31.6578 69.4727 31.5841 69.7306 31.4919C69.7306 31.3997 69.7306 31.3444 69.7306 31.3168C69.7306 31.0402 69.6661 30.8467 69.5372 30.7361C69.3713 30.5794 69.1134 30.5056 68.7633 30.5056C68.4501 30.5056 68.2105 30.5609 68.0631 30.6716C67.9065 30.7914 67.7959 30.9849 67.7222 31.2707L67.0589 31.1785C67.1234 30.8928 67.2248 30.6623 67.3629 30.4872C67.5011 30.3121 67.6946 30.1831 67.9618 30.0909C68.2197 29.9895 68.5238 29.9434 68.8646 29.9434C69.2055 29.9434 69.4911 29.9895 69.703 30.0632C69.9149 30.1462 70.0715 30.2476 70.1728 30.3674C70.2742 30.4872 70.3479 30.6439 70.3847 30.8282C70.4032 30.9481 70.4216 31.1508 70.4216 31.455V32.3491C70.4216 32.9851 70.4308 33.3814 70.4584 33.5473C70.4861 33.7132 70.5414 33.8699 70.6243 34.0266H69.9149C69.8504 33.8883 69.8043 33.7224 69.7859 33.5289ZM69.7306 32.0265C69.4911 32.1279 69.1134 32.2108 68.6251 32.2753C68.3487 32.3214 68.146 32.3675 68.0355 32.4136C67.9157 32.4689 67.8236 32.5334 67.7683 32.6348C67.7038 32.727 67.667 32.8376 67.667 32.9574C67.667 33.1325 67.7407 33.28 67.8789 33.3998C68.0078 33.5196 68.2105 33.5842 68.4777 33.5842C68.7356 33.5842 68.966 33.5289 69.1687 33.409C69.3713 33.2984 69.528 33.1417 69.6201 32.9482C69.6938 32.7915 69.7306 32.5703 69.7306 32.2753V32.0265ZM72.6972 30.0264H75.0004V30.5886H73.3789V34.0266H72.6972V30.0264ZM79.3027 32.7362L80.0029 32.8284C79.8923 33.2339 79.6897 33.5473 79.3948 33.7777C79.0908 33.9989 78.7131 34.1095 78.2525 34.1095C77.6721 34.1095 77.2022 33.9344 76.8613 33.5749C76.5205 33.2155 76.3546 32.7085 76.3546 32.0633C76.3546 31.3905 76.5205 30.8743 76.8705 30.5056C77.2114 30.1277 77.6628 29.9434 78.2156 29.9434C78.7499 29.9434 79.1829 30.1277 79.5146 30.4872C79.8555 30.8559 80.0213 31.3628 80.0213 32.0265C80.0213 32.0633 80.0213 32.1186 80.0213 32.2016H77.0456C77.0732 32.644 77.193 32.9758 77.4141 33.2063C77.6352 33.4459 77.9208 33.5565 78.2525 33.5565C78.5012 33.5565 78.7131 33.492 78.8881 33.3629C79.0632 33.2339 79.2014 33.0219 79.3027 32.7362ZM77.0824 31.6486H79.3119C79.2751 31.3075 79.1922 31.0587 79.054 30.8928C78.8421 30.6347 78.5565 30.4964 78.2156 30.4964C77.9024 30.4964 77.6444 30.607 77.4325 30.8098C77.2206 31.0218 77.1101 31.2983 77.0824 31.6486ZM82.0942 30.0264H82.7759V31.6947H84.6553V30.0264H85.3279V34.0266H84.6553V32.2569H82.7759V34.0266H82.0942V30.0264ZM87.2349 30.0264H90.4686V30.5886H89.188V34.0266H88.5155V30.5886H87.2349V30.0264ZM94.8815 32.5611L95.5449 32.6532C95.4712 33.1141 95.2869 33.4643 94.9829 33.7224C94.6881 33.9805 94.3196 34.1095 93.8773 34.1095C93.3338 34.1095 92.9008 33.9344 92.5691 33.5749C92.2375 33.2247 92.0716 32.7085 92.0716 32.0449C92.0716 31.6117 92.1361 31.2338 92.2835 30.9112C92.4217 30.5886 92.6428 30.349 92.9376 30.1923C93.2232 30.0264 93.5457 29.9434 93.8866 29.9434C94.3196 29.9434 94.6696 30.054 94.946 30.2752C95.2224 30.4964 95.3975 30.8098 95.4804 31.2062L94.8263 31.3075C94.7618 31.0402 94.6512 30.8375 94.4946 30.6992C94.3288 30.5702 94.1353 30.4964 93.9142 30.4964C93.5733 30.4964 93.2969 30.6255 93.0758 30.8651C92.8639 31.114 92.7626 31.4919 92.7626 32.0265C92.7626 32.5611 92.8639 32.9482 93.0666 33.197C93.2785 33.4367 93.5457 33.5565 93.8773 33.5565C94.1445 33.5565 94.3656 33.4736 94.5407 33.3169C94.7157 33.151 94.8263 32.9021 94.8815 32.5611ZM97.0005 30.0264H100.234V30.5886H98.9628V34.0266H98.2811V30.5886H97.0005V30.0264ZM102.123 30.0264H103.68C104.067 30.0264 104.352 30.0632 104.537 30.1277C104.721 30.1923 104.887 30.3121 105.016 30.478C105.154 30.6531 105.218 30.8559 105.218 31.0955C105.218 31.2891 105.181 31.455 105.099 31.5933C105.025 31.7315 104.905 31.8513 104.739 31.9527C104.933 32.008 105.089 32.1279 105.209 32.303C105.338 32.4689 105.393 32.6809 105.393 32.9113C105.375 33.2892 105.237 33.5749 104.988 33.7501C104.748 33.9344 104.389 34.0266 103.919 34.0266H102.123V30.0264ZM102.805 31.7131H103.523C103.809 31.7131 104.002 31.7039 104.113 31.6762C104.214 31.6394 104.315 31.5841 104.398 31.4919C104.481 31.3997 104.527 31.2891 104.527 31.1601C104.527 30.9481 104.454 30.8006 104.306 30.7176C104.15 30.6347 103.901 30.5886 103.542 30.5886H102.805V31.7131ZM102.805 33.4736H103.689C104.076 33.4736 104.334 33.4275 104.481 33.3445C104.619 33.2523 104.693 33.0957 104.702 32.8744C104.702 32.7546 104.666 32.6348 104.583 32.5242C104.5 32.4136 104.389 32.3399 104.251 32.3122C104.122 32.2846 103.91 32.2753 103.615 32.2753H102.805V33.4736ZM107.116 32.0265C107.116 31.2891 107.319 30.7453 107.733 30.3858C108.074 30.0909 108.489 29.9434 108.986 29.9434C109.539 29.9434 109.981 30.1277 110.331 30.4872C110.681 30.8467 110.857 31.3444 110.857 31.9712C110.857 32.4873 110.774 32.8929 110.626 33.1878C110.47 33.4736 110.248 33.704 109.954 33.8699C109.659 34.0358 109.336 34.1095 108.986 34.1095C108.424 34.1095 107.973 33.9344 107.632 33.5749C107.282 33.2155 107.116 32.6993 107.116 32.0265ZM107.807 32.0265C107.807 32.5426 107.918 32.9205 108.139 33.1786C108.369 33.4275 108.645 33.5565 108.986 33.5565C109.327 33.5565 109.604 33.4275 109.825 33.1786C110.046 32.9205 110.166 32.5334 110.166 32.008C110.166 31.5195 110.046 31.1416 109.825 30.8928C109.604 30.6347 109.318 30.5056 108.986 30.5056C108.645 30.5056 108.369 30.6347 108.139 30.8835C107.918 31.1416 107.807 31.5195 107.807 32.0265ZM115.03 30.0264H115.702V31.6947H117.582V30.0264H118.264V34.0266H117.582V32.2569H115.702V34.0266H115.03V30.0264ZM123.248 32.7362L123.948 32.8284C123.837 33.2339 123.635 33.5473 123.331 33.7777C123.036 33.9989 122.658 34.1095 122.197 34.1095C121.608 34.1095 121.147 33.9344 120.806 33.5749C120.465 33.2155 120.3 32.7085 120.3 32.0633C120.3 31.3905 120.465 30.8743 120.816 30.5056C121.156 30.1277 121.608 29.9434 122.161 29.9434C122.686 29.9434 123.128 30.1277 123.46 30.4872C123.8 30.8559 123.966 31.3628 123.966 32.0265C123.966 32.0633 123.966 32.1186 123.966 32.2016H120.991C121.018 32.644 121.138 32.9758 121.359 33.2063C121.58 33.4459 121.857 33.5565 122.197 33.5565C122.437 33.5565 122.649 33.492 122.824 33.3629C122.999 33.2339 123.146 33.0219 123.248 32.7362ZM121.027 31.6486H123.248C123.22 31.3075 123.137 31.0587 122.999 30.8928C122.778 30.6347 122.501 30.4964 122.161 30.4964C121.847 30.4964 121.589 30.607 121.378 30.8098C121.166 31.0218 121.046 31.2983 121.027 31.6486ZM126.398 30.0264H129.19V33.4736H129.623V35.1603H129.07V34.0266H125.919V35.1603H125.367V33.4736H125.717C126.196 32.8284 126.426 31.6762 126.398 30.0264ZM126.96 30.5886C126.914 31.8882 126.712 32.8468 126.362 33.4736H128.508V30.5886H126.96ZM131.604 30.0264H133.161C133.548 30.0264 133.833 30.0632 134.017 30.1277C134.202 30.1923 134.368 30.3121 134.497 30.478C134.635 30.6531 134.699 30.8559 134.699 31.0955C134.699 31.2891 134.662 31.455 134.579 31.5933C134.497 31.7315 134.386 31.8513 134.22 31.9527C134.414 32.008 134.57 32.1279 134.69 32.303C134.81 32.4689 134.874 32.6809 134.874 32.9113C134.847 33.2892 134.718 33.5749 134.469 33.7501C134.22 33.9344 133.87 34.0266 133.4 34.0266H131.604V30.0264ZM132.276 31.7131H132.995C133.29 31.7131 133.483 31.7039 133.594 31.6762C133.695 31.6394 133.796 31.5841 133.879 31.4919C133.962 31.3997 134.008 31.2891 134.008 31.1601C134.008 30.9481 133.935 30.8006 133.787 30.7176C133.631 30.6347 133.382 30.5886 133.022 30.5886H132.276V31.7131ZM132.276 33.4736H133.17C133.557 33.4736 133.815 33.4275 133.962 33.3445C134.1 33.2523 134.174 33.0957 134.183 32.8744C134.183 32.7546 134.137 32.6348 134.064 32.5242C133.971 32.4136 133.87 32.3399 133.732 32.3122C133.603 32.2846 133.391 32.2753 133.096 32.2753H132.276V33.4736ZM136.929 30.0264H137.61V33.0772L139.49 30.0264H140.218V34.0266H139.545V30.9942L137.666 34.0266H136.929V30.0264ZM144.889 30.0264V31.7592C145.11 31.7592 145.266 31.7131 145.349 31.6301C145.441 31.5472 145.57 31.3075 145.736 30.9112C145.884 30.5333 146.022 30.2937 146.151 30.1831C146.28 30.0817 146.473 30.0264 146.74 30.0264H146.989V30.5886H146.805C146.621 30.5886 146.51 30.6163 146.455 30.6623C146.409 30.7176 146.326 30.8835 146.215 31.1601C146.114 31.4181 146.022 31.6025 145.939 31.7039C145.856 31.8053 145.718 31.8882 145.543 31.9712C145.837 32.0541 146.123 32.3214 146.399 32.7915L147.136 34.0266H146.399L145.672 32.7915C145.524 32.5426 145.395 32.3767 145.285 32.2938C145.174 32.22 145.045 32.1832 144.889 32.1832V34.0266H144.198V32.1832C144.05 32.1832 143.921 32.22 143.811 32.2938C143.7 32.3767 143.571 32.5334 143.424 32.7915L142.696 34.0266H141.95L142.687 32.7915C142.972 32.3214 143.258 32.0541 143.553 31.9712C143.35 31.879 143.212 31.7776 143.129 31.6762C143.046 31.5656 142.935 31.2983 142.77 30.8928C142.714 30.7545 142.659 30.6716 142.595 30.6347C142.53 30.607 142.429 30.5886 142.3 30.5886C142.272 30.5886 142.208 30.5886 142.106 30.5886V30.0264H142.198C142.456 30.0264 142.641 30.0448 142.751 30.0817C142.853 30.1093 142.954 30.1738 143.037 30.2752C143.12 30.3766 143.23 30.5886 143.359 30.9112C143.525 31.3075 143.654 31.5472 143.737 31.6301C143.829 31.7131 143.976 31.7592 144.198 31.7592V30.0264H144.889ZM148.868 30.0264H149.541V33.0772L151.42 30.0264H152.148V34.0266H151.476V30.9942L149.596 34.0266H148.868V30.0264ZM154.424 30.0264H155.474L156.524 33.2339L157.694 30.0264H158.662V34.0266H157.989V30.8098L156.81 34.0266H156.202L155.087 30.6531V34.0266H154.424V30.0264ZM160.688 32.0265C160.688 31.2891 160.891 30.7453 161.306 30.3858C161.647 30.0909 162.061 29.9434 162.559 29.9434C163.102 29.9434 163.554 30.1277 163.904 30.4872C164.254 30.8467 164.429 31.3444 164.429 31.9712C164.429 32.4873 164.346 32.8929 164.199 33.1878C164.042 33.4736 163.821 33.704 163.526 33.8699C163.231 34.0358 162.909 34.1095 162.559 34.1095C161.997 34.1095 161.545 33.9344 161.204 33.5749C160.854 33.2155 160.688 32.6993 160.688 32.0265ZM161.379 32.0265C161.379 32.5426 161.49 32.9205 161.711 33.1786C161.932 33.4275 162.218 33.5565 162.559 33.5565C162.89 33.5565 163.176 33.4275 163.397 33.1786C163.618 32.9205 163.729 32.5334 163.729 32.008C163.729 31.5195 163.618 31.1416 163.397 30.8928C163.167 30.6347 162.89 30.5056 162.559 30.5056C162.218 30.5056 161.932 30.6347 161.711 30.8835C161.49 31.1416 161.379 31.5195 161.379 32.0265ZM169.072 32.5611L169.735 32.6532C169.662 33.1141 169.477 33.4643 169.173 33.7224C168.879 33.9805 168.51 34.1095 168.077 34.1095C167.524 34.1095 167.091 33.9344 166.76 33.5749C166.428 33.2247 166.262 32.7085 166.262 32.0449C166.262 31.6117 166.336 31.2338 166.474 30.9112C166.612 30.5886 166.833 30.349 167.128 30.1923C167.414 30.0264 167.736 29.9434 168.077 29.9434C168.51 29.9434 168.869 30.054 169.137 30.2752C169.413 30.4964 169.597 30.8098 169.671 31.2062L169.017 31.3075C168.952 31.0402 168.842 30.8375 168.685 30.6992C168.519 30.5702 168.335 30.4964 168.105 30.4964C167.764 30.4964 167.488 30.6255 167.276 30.8651C167.055 31.114 166.953 31.4919 166.953 32.0265C166.953 32.5611 167.055 32.9482 167.257 33.197C167.469 33.4367 167.736 33.5565 168.068 33.5565C168.335 33.5565 168.556 33.4736 168.731 33.3169C168.906 33.151 169.026 32.9021 169.072 32.5611ZM171.191 30.0264H174.425V30.5886H173.153V34.0266H172.472V30.5886H171.191V30.0264ZM176.313 30.0264H176.995V33.0772L178.875 30.0264H179.602V34.0266H178.921V30.9942L177.041 34.0266H176.313V30.0264Z" fill="white"/>
</svg>
